<svg xmlns="http://www.w3.org/2000/svg" viewBox="0 0 200 200" fill="white">
  <path d="M 114,104 L 113,105 L 108,105 L 107,106 L 106,105 L 97,105 L 96,106 L 94,106 L 93,107 L 91,107 L 90,108 L 88,108 L 87,109 L 85,109 L 84,110 L 84,111 L 83,112 L 83,120 L 84,121 L 84,122 L 85,123 L 86,123 L 87,124 L 127,124 L 130,121 L 130,120 L 131,119 L 131,113 L 130,112 L 130,111 L 128,109 L 127,109 L 126,108 L 124,108 L 123,107 L 121,107 L 120,106 L 118,106 L 117,105 L 115,105 Z" />
  <path d="M 74,85 L 73,86 L 72,86 L 72,89 L 78,95 L 78,96 L 77,97 L 44,97 L 44,101 L 79,101 L 80,102 L 72,110 L 72,113 L 73,113 L 74,114 L 75,113 L 76,113 L 86,103 L 86,102 L 88,100 L 88,98 L 76,86 L 75,86 Z" />
  <path d="M 102,75 L 101,76 L 100,76 L 95,81 L 95,82 L 94,83 L 94,87 L 93,88 L 94,89 L 94,93 L 95,94 L 95,95 L 99,99 L 100,99 L 101,100 L 102,100 L 103,101 L 111,101 L 112,100 L 113,100 L 115,98 L 116,98 L 118,96 L 118,95 L 119,94 L 119,92 L 120,91 L 120,85 L 119,84 L 119,82 L 118,81 L 118,80 L 115,77 L 114,77 L 113,76 L 112,76 L 111,75 Z" />
  <path d="M 98,52 L 97,53 L 94,53 L 93,54 L 91,54 L 90,55 L 88,55 L 87,56 L 86,56 L 85,57 L 84,57 L 83,58 L 82,58 L 80,60 L 79,60 L 75,64 L 74,64 L 71,67 L 71,68 L 67,72 L 67,73 L 66,74 L 66,75 L 64,77 L 64,79 L 63,80 L 63,81 L 62,82 L 62,84 L 66,84 L 67,83 L 67,82 L 68,81 L 68,80 L 69,79 L 69,78 L 71,76 L 71,75 L 73,73 L 73,72 L 78,67 L 79,67 L 83,63 L 84,63 L 85,62 L 86,62 L 88,60 L 90,60 L 91,59 L 92,59 L 93,58 L 95,58 L 96,57 L 100,57 L 101,56 L 113,56 L 114,57 L 117,57 L 118,58 L 120,58 L 121,59 L 123,59 L 124,60 L 125,60 L 126,61 L 127,61 L 128,62 L 129,62 L 131,64 L 132,64 L 142,74 L 142,75 L 144,77 L 144,78 L 146,80 L 146,82 L 147,83 L 147,84 L 148,85 L 148,87 L 149,88 L 149,92 L 150,93 L 150,106 L 149,107 L 149,111 L 148,112 L 148,114 L 147,115 L 147,117 L 146,118 L 146,119 L 144,121 L 144,122 L 143,123 L 143,124 L 132,135 L 131,135 L 129,137 L 128,137 L 127,138 L 126,138 L 125,139 L 124,139 L 123,140 L 121,140 L 120,141 L 118,141 L 117,142 L 112,142 L 111,143 L 102,143 L 101,142 L 96,142 L 95,141 L 93,141 L 92,140 L 90,140 L 89,139 L 88,139 L 86,137 L 85,137 L 84,136 L 83,136 L 80,133 L 79,133 L 73,127 L 73,126 L 70,123 L 70,122 L 69,121 L 69,120 L 68,119 L 68,118 L 67,117 L 67,116 L 66,115 L 62,115 L 62,117 L 63,118 L 63,119 L 64,120 L 64,122 L 66,124 L 66,125 L 67,126 L 67,127 L 71,131 L 71,132 L 74,135 L 75,135 L 79,139 L 80,139 L 82,141 L 83,141 L 84,142 L 85,142 L 86,143 L 87,143 L 88,144 L 90,144 L 91,145 L 93,145 L 94,146 L 97,146 L 98,147 L 115,147 L 116,146 L 120,146 L 121,145 L 123,145 L 124,144 L 125,144 L 126,143 L 127,143 L 128,142 L 129,142 L 130,141 L 131,141 L 132,140 L 133,140 L 136,137 L 137,137 L 145,129 L 145,128 L 147,126 L 147,125 L 148,124 L 148,123 L 150,121 L 150,120 L 151,119 L 151,117 L 152,116 L 152,114 L 153,113 L 153,110 L 154,109 L 154,104 L 155,103 L 155,97 L 154,96 L 154,90 L 153,89 L 153,86 L 152,85 L 152,83 L 151,82 L 151,81 L 150,80 L 150,79 L 149,78 L 149,77 L 148,76 L 148,75 L 147,74 L 147,73 L 145,71 L 145,70 L 136,61 L 135,61 L 133,59 L 132,59 L 130,57 L 129,57 L 128,56 L 126,56 L 125,55 L 124,55 L 123,54 L 121,54 L 120,53 L 117,53 L 116,52 Z" />
</svg>
